<svg xmlns="http://www.w3.org/2000/svg">
<symbol id="svg-3" viewBox="0 0 1024 1024"><path d="M152.462 263.396L67.13 113.778l-48.925 28.444 85.334 147.911zm437.476-41.53L545.564 56.89 488.676 71.68l44.373 164.978zm64.284 408.463a82.489 82.489 0 0 1-28.444-4.551v5.689A113.778 113.778 0 1 1 512 517.689a113.778 113.778 0 0 1 56.889 16.498 87.609 87.609 0 0 1 26.169-50.631 170.667 170.667 0 1 0 87.609 146.773v-4.551a89.884 89.884 0 0 1-28.445 4.55zM512 288.996c-284.444 0-512 152.462-512 341.333s227.556 341.333 512 341.333 512-153.03 512-341.333-227.556-341.333-512-341.333zm0 625.777c-251.449 0-455.111-127.43-455.111-284.444S260.55 345.884 512 345.884 967.111 473.316 967.111 630.33 763.45 914.773 512 914.773zm493.796-770.844l-48.925-30.151-85.333 147.91 48.924 28.445z"/></symbol>
<symbol id="svg-4" viewBox="0 0 1024 1024"><path d="M113.778 56.889h455.11v170.667H284.445v56.888h512v170.667h56.89V227.556L739.555 113.778 625.778 0H56.888v1024h398.223v-56.889H113.778zm512 23.324l73.386 73.956 73.956 73.387H625.778zM284.444 739.556h170.667v-56.89H284.444zm341.334 0v56.888h284.444v-56.888zM768 512a256 256 0 1 0 256 256 256.569 256.569 0 0 0-256-256zm0 455.111A199.111 199.111 0 1 1 967.111 768 199.111 199.111 0 0 1 768 967.111zM284.444 512H568.89v-56.889H284.444z"/></symbol>
<symbol id="svg-icon_1" viewBox="0 0 18 18"><title>icon_1</title><path class="cls-1" d="M2.68 4.63L1.18 2l-.86.5 1.5 2.6zm7.69-.73L9.59 1l-1 .26.78 2.9zm1.13 7.18A1.45 1.45 0 0 1 11 11v.1a2 2 0 1 1-2-2 2 2 0 0 1 1 .29 1.54 1.54 0 0 1 .46-.89A3 3 0 1 0 12 11.08V11a1.58 1.58 0 0 1-.5.08zm-2.5-6c-5 0-9 2.68-9 6s4 6 9 6 9-2.69 9-6-4-6-9-6zm0 11c-4.42 0-8-2.24-8-5s3.58-5 8-5 8 2.24 8 5-3.58 5-8 5zm8.68-13.55L16.82 2l-1.5 2.6.86.5z"/></symbol>
<symbol id="svg-icon_11" viewBox="0 0 1024 1024"><path d="M152.462 263.396L67.13 113.778l-48.925 28.444 85.334 147.911zm437.476-41.53L545.564 56.89 488.676 71.68l44.373 164.978zm64.284 408.463a82.489 82.489 0 0 1-28.444-4.551v5.689A113.778 113.778 0 1 1 512 517.689a113.778 113.778 0 0 1 56.889 16.498 87.609 87.609 0 0 1 26.169-50.631 170.667 170.667 0 1 0 87.609 146.773v-4.551a89.884 89.884 0 0 1-28.445 4.55zM512 288.996c-284.444 0-512 152.462-512 341.333s227.556 341.333 512 341.333 512-153.03 512-341.333-227.556-341.333-512-341.333zm0 625.777c-251.449 0-455.111-127.43-455.111-284.444S260.55 345.884 512 345.884 967.111 473.316 967.111 630.33 763.45 914.773 512 914.773zm493.796-770.844l-48.925-30.151-85.333 147.91 48.924 28.445z"/></symbol>
<symbol id="svg-icon_2" viewBox="0 0 18 18"><title>icon_2</title><path class="cls-1" d="M2 1h8v3H5v1h9v3h1V4l-2-2-2-2H1v18h7v-1H2zm9 .41l1.29 1.3L13.59 4H11zM5 13h3v-1H5zm6 0v1h5v-1zm2.5-4a4.5 4.5 0 1 0 4.5 4.5A4.51 4.51 0 0 0 13.5 9zm0 8a3.5 3.5 0 1 1 3.5-3.5 3.5 3.5 0 0 1-3.5 3.5zM5 9h5V8H5z" id="icon2"/></symbol>
<symbol id="svg-icon_21" viewBox="0 0 1024 1024"><path d="M113.778 56.889h455.11v170.667H284.445v56.888h512v170.667h56.89V227.556L739.555 113.778 625.778 0H56.888v1024h398.223v-56.889H113.778zm512 23.324l73.386 73.956 73.956 73.387H625.778zM284.444 739.556h170.667v-56.89H284.444zm341.334 0v56.888h284.444v-56.888zM768 512a256 256 0 1 0 256 256 256.569 256.569 0 0 0-256-256zm0 455.111A199.111 199.111 0 1 1 967.111 768 199.111 199.111 0 0 1 768 967.111zM284.444 512H568.89v-56.889H284.444z"/></symbol>
<symbol id="svg-liwu" viewBox="0 0 1024 1024"><path d="M551.583 460.004V234.757c-11.54-1.119-22.695-2.38-32.213-3.924v-.414H517.344l.022.015H519.352v.422h-1.605l-.007-.007c-.048.045-.408.37-.772.37-12.321 1.6-27.445 3.538-44.532 5.14v223.668H8.333V280.482c0-28.241 22.61-50.87 50.92-50.87h211.509c-56.804-11.886-99.414-36.178-100.978-81.037-1.6-52.845 58.051-138.27 145.146-118.777 89.906 20.207 152.724 89.763 200.839 149.352C564.302 118.4 633.088 40.12 726.914 27.776c78.406-9.926 143.21 68.351 134.853 119.998-7.13 45.262-50.518 69.917-105.804 81.82h208.782c28.267 0 50.922 22.626 50.922 50.866v179.545H551.583v-.001zM324.506 76.642c-43.39-17.093-68.806 1.24-87.097 31.431-9.952 17.048-20.65 39.723-4.785 56.388 41.743 42.926 156.263 39.763 233.067 31.775-36.222-45.217-80.748-95.728-141.185-119.594zm474.424 87.464c29.824-38.164-28.628-117.618-91.464-88.25-60.076 28.238-103.401 74.277-140.78 119.6 32.168 2.805 64.803 3.54 97.032 1.98 39.383-1.599 112.158-4.36 135.212-33.33zM475.602 997.084H97.39c-25.46 0-46.153-20.627-46.153-46.46V496.21h424.365v500.875zm497.12-46.461c0 25.857-20.67 46.459-46.153 46.459H548.398V496.209h424.324v454.414z"/></symbol>
<symbol id="svg-number_6" viewBox="0 0 1024 1024"><path d="M534.886 0L373.965 442.112A211.763 211.763 0 0 1 486.4 409.6c127.232 0 230.4 114.637 230.4 256s-103.168 256-230.4 256S256 806.963 256 665.6c0-38.502 7.68-75.06 21.35-107.827L480.41 0h54.476zM486.4 870.4c98.97 0 179.2-91.648 179.2-204.8s-80.23-204.8-179.2-204.8-179.2 91.648-179.2 204.8 80.23 204.8 179.2 204.8z" fill="#444"/></symbol>
<symbol id="svg-shangchuan" viewBox="0 0 1024 1024"><path d="M536.357 12.142a33.06 33.06 0 0 0-49.81 0L98.01 439.296c-13.677 14.994-7.899 27.355 12.874 27.355h174.811c20.846 0 37.815 16.311 37.815 36.352v280.21c0 19.969 17.042 36.353 37.815 36.353h300.032a37.23 37.23 0 0 0 37.815-36.352v-280.21c0-20.042 17.042-36.353 37.814-36.353H911.8c20.772 0 26.624-12.36 12.873-27.428L536.357 12.069zM73.143 938.862c0-20.041 17.042-36.425 37.815-36.425h800.914c20.773 0 37.815 16.384 37.815 36.352v47.689a37.23 37.23 0 0 1-37.815 36.425H110.958a37.23 37.23 0 0 1-37.815-36.425v-47.69z" fill="#888"/></symbol>
</svg>