<svg xmlns="http://www.w3.org/2000/svg">
<symbol id="svg-nav-1" viewBox="0 0 1024 1024"><path d="M896 896a64 64 0 0 1-64 64H640V704a128 128 0 0 0-256 0v256H192a64 64 0 0 1-64-64V512H64v384a128 128 0 0 0 128 128h640a128 128 0 0 0 128-128V512h-64zm-320 64H448V704a64 64 0 0 1 128 0zM512 0L0 397.44 40.32 448 512 110.08 983.68 448l40.32-50.56z"/></symbol>
<symbol id="svg-nav-2" viewBox="0 0 1024 1024"><path d="M675.84 64L896 284.16V960H128V64h547.84M704 0H64v1024h896V256L704 0z"/><path d="M704 0h-64v320h64V0z"/><path d="M960 256H640v64h320v-64zM640 448H320v64h320zM320 640v64h384v-64zm320-384H320v64h320z"/></symbol>
<symbol id="svg-nav-3" viewBox="0 0 1024 1024"><path d="M447.988 319.991h511.986v-63.998H447.988zm204.154 360.95a50.559 50.559 0 0 1-26.239-40.958v-10.24A298.232 298.232 0 0 0 727.66 511.986h5.76a98.557 98.557 0 0 0 84.478-85.757 127.997 127.997 0 0 0 0-40.96H753.9a63.998 63.998 0 0 1 0 28.16 50.559 50.559 0 0 1-21.12 34.559h-6.4a63.998 63.998 0 0 0-57.598 35.839 226.554 226.554 0 0 1-78.078 92.158 63.998 63.998 0 0 0-28.8 53.758v10.24a114.557 114.557 0 0 0 58.88 99.197c49.918 28.16 102.397 53.759 152.955 78.078a664.942 664.942 0 0 1 186.235 107.517v35.2H63.998v-35.84c14.72-29.439 127.997-81.918 199.035-112.637 44.159-20.48 89.598-40.959 133.116-63.998a116.477 116.477 0 0 0 63.999-92.158v-2.56a87.038 87.038 0 0 0 0-23.039 63.998 63.998 0 0 0-26.88-53.758 226.554 226.554 0 0 1-79.358-94.078 63.998 63.998 0 0 0-56.958-33.919h-6.4a48.639 48.639 0 0 1-21.76-34.56 46.719 46.719 0 0 1 5.76-39.678 63.998 63.998 0 0 0 45.44-60.158c8.96-140.157 92.797-249.594 191.994-249.594a188.155 188.155 0 0 1 161.276 127.997h68.478A255.993 255.993 0 0 0 511.986 0C376.31 0 266.873 136.956 255.993 310.392a94.077 94.077 0 0 0-51.838 114.557 98.557 98.557 0 0 0 86.397 87.037h5.76a292.472 292.472 0 0 0 101.757 117.117v21.76a49.919 49.919 0 0 1-28.159 40.958C204.794 774.38 0 838.377 0 921.575v71.678a32.64 32.64 0 0 0 33.92 30.72h956.133a32.64 32.64 0 0 0 33.92-30.72v-71.678c0-81.278-205.435-146.556-371.83-240.633z"/></symbol>
<symbol id="svg-nav-4" viewBox="0 0 1024 1024"><path d="M896 896a64 64 0 0 1-64 64H640V704a128 128 0 0 0-256 0v256H192a64 64 0 0 1-64-64V512H64v384a128 128 0 0 0 128 128h640a128 128 0 0 0 128-128V512h-64zm-320 64H448V704a64 64 0 0 1 128 0zM896 0H128A128 128 0 0 0 0 128v320h1024V128A128 128 0 0 0 896 0zm64 384H64V128a64 64 0 0 1 64-64h768a64 64 0 0 1 64 64z"/></symbol>
<symbol id="svg-nav-5" viewBox="0 0 1031 1024"><path d="M691.794 768c64-44.8 121.6-102.4 172.8-160-12.8-19.2-19.2-38.4-32-57.6-51.2 64-108.8 121.6-179.2 172.8-32 25.6-57.6 44.8-96 64-70.4 44.8-140.8 76.8-217.6 96-38.4 6.4-76.8 12.8-115.2 12.8-51.2 6.4-102.4-12.8-134.4-51.2-25.6-57.6-25.6-128 6.4-185.6-25.6-25.6-38.4-44.8-51.2-64-51.2 108.8-64 211.2-12.8 281.6 44.8 57.6 115.2 89.6 185.6 83.2 64 0 128-12.8 192-38.4 76.8-25.6 153.6-64 224-115.2 19.2-6.4 38.4-25.6 57.6-38.4z"/><path d="M160.594 608c51.2 57.6 108.8 115.2 172.8 160l57.6 38.4c25.6-6.4 51.2-19.2 76.8-25.6-32-19.2-64-38.4-89.6-64-64-51.2-128-108.8-179.2-172.8-44.8-51.2-83.2-108.8-108.8-172.8-32-57.6-32-128-6.4-185.6 38.4-44.8 83.2-64 140.8-57.6 38.4 0 76.8 6.4 115.2 19.2 25.6-19.2 44.8-32 70.4-44.8-64-25.6-128-38.4-192-38.4-70.4-6.4-140.8 25.6-185.6 83.2-44.8 70.4-38.4 172.8 12.8 281.6 32 64 70.4 121.6 115.2 179.2z"/><path d="M864.594 416c-51.2-57.6-108.8-115.2-172.8-160l-51.2-38.4V192c0-12.8 0-19.2-6.4-32l51.2-12.8c38.4-12.8 76.8-19.2 121.6-19.2 51.2-6.4 102.4 12.8 134.4 51.2 25.6 57.6 25.6 128-6.4 185.6 19.2 19.2 32 38.4 44.8 57.6 51.2-108.8 64-211.2 12.8-281.6-44.8-57.6-115.2-89.6-185.6-83.2-64 0-128 12.8-192 38.4h-6.4c-25.6-19.2-64-32-96-32-70.4 0-128 57.6-128 128v25.6c-19.2 12.8-32 25.6-51.2 38.4-64 44.8-121.6 102.4-166.4 160 12.8 19.2 19.2 38.4 32 57.6 51.2-64 108.8-121.6 179.2-172.8 6.4-6.4 25.6-12.8 38.4-25.6 44.8 51.2 128 57.6 179.2 12.8l12.8-12.8 44.8 32c64 51.2 128 108.8 179.2 172.8 44.8 51.2 83.2 115.2 108.8 179.2 32 57.6 32 128 6.4 185.6-32 38.4-83.2 57.6-134.4 51.2-38.4 0-76.8-6.4-115.2-19.2-25.6 19.2-51.2 32-76.8 44.8 64 25.6 128 38.4 192 38.4 70.4 6.4 140.8-25.6 185.6-83.2 51.2-70.4 38.4-172.8-12.8-281.6-38.4-64-76.8-121.6-121.6-179.2zm-352-160c-38.4 0-64-25.6-64-64s25.6-64 64-64 64 25.6 64 64-25.6 64-64 64z"/></symbol>
<symbol id="svg-nav-6" viewBox="0 0 1024 1024"><path d="M320 704h64V384h-64v128H64v64h256zm192-320h64V64h-64v128H64v64h448zM64 896h576v-64H64zm384-320h512v-64H448zm320 128h-64v320h64V896h192v-64H768zM640 192v64h320v-64z"/></symbol>
</svg>